<?xml version="1.0" encoding="UTF-8"?>
<svg id="Layer_1" data-name="Layer 1" xmlns="http://www.w3.org/2000/svg" viewBox="0 0 621.35 503.83">
  <defs>
    <style>
      .cls-1 {
        fill: #52213e;
      }
    </style>
  </defs>
  <path class="cls-1" d="M323.96,204.08c37.89-16.46,36.18-48.69,6.69-73.38-23.49-19.72-62.07-28.97-92.24-28.97-117.45-.51-204.2,95.5-228.89,203.17v.35c2.57,13.03,6.52,25.37,11.66,37.55,10.12-80.76,52.12-160.65,125.51-200.26,48.86-26.4,125.68-36.35,170.25,3.26,5.66,4.97,22.12,20.75,14.06,28.12-9.77,9.26-16.29-7.37-22.46-13.55-21.6-21.77-61.38-27.26-90.7-24.01-81.61,9.43-140.42,74.58-166.31,148.48-9.43,26.74-15.77,56.92-16.63,86.75,1.03,1.88,2.06,3.77,3.26,5.66,4.63,7.72,9.77,14.92,15.26,21.94,1.2-12,4.11-24.34,9.09-37.03,41.66-107.16,168.54-117.96,261.47-158.08ZM75.87,310.56c-3.77,5.14-10.8,22.46-18.69,18-7.03-3.95-.68-16.29,2.23-21.77,5.66-10.63,18.86-26.92,29.49-32.58,4.11-2.05,7.37-3.94,11.49-1.03,10.12,7.72-8.23,18.17-13.2,23.15-3.77,3.94-7.89,9.77-11.32,14.23ZM583.37,126.07c-22.8-37.03-54.01-66.53-93.44-88.3C450.33,15.83,405.06,4.85,353.97,4.85h-86.58c-51.09,0-96.36,10.98-135.79,32.92-39.61,21.77-70.81,51.27-93.44,88.3-7.72,12.52-14.06,25.37-19.03,38.92,31.89-41.49,74.92-75.78,119.5-93.96,6.86-2.74,24.35-11.14,29.66-4.11,9.26,12.35-23.66,19.2-30.86,22.29C83.59,112.35,35.41,162.07,7.63,212.83c-.34.68-.69,1.2-1.03,1.88v.17c-1.89,12-2.74,24.35-2.74,37.03,0,3.95,0,7.89.34,11.84C44.67,153.85,148.57,67.95,273.04,88.7c42.52,7.03,117.1,46.98,92.07,100.13-6.51,13.89-20.23,23.15-34.12,29.15-50.06,21.94-107.33,35.66-158.08,56.75-63.09,26.4-106.65,87.1-103.04,143.85,7.54,8.23,15.94,16.12,25.03,22.97-14.75-36.52-4.63-80.75,33.95-117.44,41.49-39.43,142.99-67.38,199.06-87.27,28.8-10.28,55.38-20.57,62.92-54.35,14.57-65.5-70.3-103.9-122.59-109.74-25.2-2.74-48.35.17-73.38,1.89-9.09-7.03-4.11-12,5.14-14.41,37.38-10.28,94.98-2.91,130.3,12.35,49.89,21.26,98.24,72.18,71.32,129.27-10.29,21.77-26.4,34.12-48.52,43.72-49.89,21.6-107.16,36.86-158.42,55.72-73.21,26.92-121.39,111.44-66.52,162.88,1.03.69,2.23,1.37,3.43,2.06,4.97,2.74,9.94,5.32,15.09,7.72,20.4,9.6,42.35,16.46,65.67,20.4,11.66,2.05,23.66,3.43,36.18,4.11h.51c91.56-9.6,180.54-84.18,213.8-165.45,2.06-4.98,4.8-17.83,6.69-21.26,5.32-8.75,17.49-6.51,15.26,7.2-4.11,24.35-31.37,67.55-46.81,87.27-31.55,39.95-75.95,73.9-125.16,92.76h41.15c19.2,0,37.55-1.54,55.04-4.63,4.46-.69,8.75-1.72,13.03-2.57,8.4-1.89,16.8-4.28,24.86-6.85,4.11-1.37,8.23-2.74,12.17-4.29,10.63-4.12,20.92-8.92,30.86-14.4,39.43-21.94,70.64-51.61,93.44-88.99,22.63-37.38,34.12-79.04,34.12-125.33s-11.49-88.64-34.12-125.84ZM220.92,435.89c3.43-4.97,20.75-4.46,27.26-5.49,65.15-10.8,122.76-60.52,148.14-120.53,2.57-6,4.97-24.52,15.6-19.55,10.8,4.98.86,22.46-2.23,29.49-29.15,66.01-96.18,121.39-169.57,127.56-9.6.86-22.97,3.09-19.2-11.49ZM160.23,420.45c6.86-4.28,15.26,2.92,21.6,5.15,3.6,1.38,17.83,4.63,19.37,5.83,4.8,3.94,3.43,11.83-2.4,13.71-7.37,2.4-32.06-6.69-37.38-12.52-3.26-3.43-6.17-9.09-1.2-12.18ZM445.18,327.19c-37.2,90.18-141.28,167.17-241.75,152.94-36.01-4.97-80.41-27.43-89.5-66.01-1.37-6,1.2-18.34,8.57-13.2,1.37,1.03,9.26,18.86,12.17,22.97,25.03,37.21,77.15,46.47,118.82,39.95,76.81-12,146.08-71.49,175.74-142.14,3.09-7.2,5.66-24.17,16.29-21.26,10.8,3.26,2.4,19.89-.34,26.75Z"/>
</svg>