<?xml version="1.0" encoding="UTF-8"?>
<svg id="Layer_1" data-name="Layer 1" xmlns="http://www.w3.org/2000/svg" viewBox="305 0 1150 250" width="100%" height="100%">
  <defs>
    <style>
      .cls-1 { fill: #fff; }
    </style>
  </defs>
  
  <g transform="translate(20, 10) scale(0.88)">
    <path class="cls-1" d="M546.37,104.06c18.15-7.88,17.33-23.33,3.2-35.15-11.25-9.45-29.73-13.88-44.19-13.88-56.26-.25-97.82,45.75-109.65,97.33v.17c1.23,6.24,3.12,12.15,5.58,17.99,4.85-38.69,24.97-76.96,60.12-95.93,23.41-12.65,60.21-17.41,81.56,1.56,2.71,2.38,10.6,9.94,6.74,13.47-4.68,4.43-7.8-3.53-10.76-6.49-10.35-10.43-29.4-13.06-43.45-11.5-39.1,4.52-67.27,35.73-79.67,71.13-4.52,12.81-7.56,27.27-7.97,41.56.49.9.99,1.81,1.56,2.71,2.22,3.7,4.68,7.15,7.31,10.51.58-5.75,1.97-11.66,4.35-17.74,19.96-51.34,80.74-56.51,125.26-75.73ZM427.52,155.07c-1.81,2.46-5.17,10.76-8.95,8.62-3.37-1.89-.33-7.8,1.07-10.43,2.71-5.09,9.04-12.9,14.13-15.61,1.97-.98,3.53-1.89,5.5-.49,4.85,3.7-3.94,8.71-6.32,11.09-1.81,1.89-3.78,4.68-5.42,6.82ZM670.64,66.69c-10.92-17.74-25.87-31.87-44.76-42.3-18.97-10.51-40.66-15.77-65.13-15.77h-41.48c-24.48,0-46.16,5.26-65.05,15.77-18.97,10.43-33.92,24.56-44.76,42.3-3.7,6-6.74,12.16-9.12,18.64,15.28-19.88,35.89-36.3,57.25-45.01,3.29-1.31,11.66-5.34,14.21-1.97,4.44,5.91-11.33,9.2-14.78,10.68-25.79,11.09-48.87,34.91-62.18,59.22-.16.33-.33.57-.49.9v.08c-.9,5.75-1.31,11.66-1.31,17.74,0,1.89,0,3.78.16,5.67,19.38-52.65,69.16-93.8,128.79-83.86,20.37,3.37,56.1,22.5,44.11,47.97-3.12,6.65-9.69,11.09-16.34,13.96-23.98,10.51-51.42,17.08-75.73,27.19-30.23,12.65-51.09,41.72-49.36,68.91,3.61,3.94,7.64,7.72,11.99,11-7.06-17.49-2.22-38.68,16.26-56.26,19.88-18.89,68.5-32.28,95.36-41.81,13.8-4.93,26.53-9.86,30.14-26.03,6.98-31.38-33.68-49.77-58.73-52.57-12.07-1.31-23.16.08-35.15.91-4.35-3.37-1.97-5.75,2.46-6.9,17.9-4.93,45.5-1.39,62.42,5.92,23.9,10.19,47.06,34.58,34.17,61.93-4.93,10.43-12.65,16.34-23.24,20.95-23.9,10.35-51.34,17.66-75.89,26.7-35.07,12.89-58.15,53.39-31.87,78.03.49.33,1.07.66,1.64.99,2.38,1.31,4.76,2.55,7.23,3.7,9.77,4.6,20.29,7.88,31.46,9.77,5.59.98,11.33,1.64,17.33,1.97h.25c43.86-4.6,86.49-40.33,102.42-79.26.99-2.38,2.3-8.54,3.2-10.19,2.55-4.19,8.38-3.12,7.31,3.45-1.97,11.66-15.03,32.36-22.42,41.81-15.11,19.14-36.39,35.4-59.96,44.43h19.71c9.2,0,17.99-.74,26.37-2.22,2.14-.33,4.19-.82,6.24-1.23,4.02-.9,8.05-2.05,11.91-3.28,1.97-.66,3.94-1.31,5.83-2.05,5.09-1.97,10.02-4.27,14.79-6.9,18.89-10.51,33.84-24.72,44.76-42.63,10.84-17.91,16.35-37.86,16.35-60.04s-5.5-42.46-16.35-60.29ZM497,215.11c1.64-2.38,9.94-2.13,13.06-2.63,31.21-5.17,58.81-28.99,70.96-57.74,1.23-2.87,2.38-11.75,7.47-9.37,5.17,2.38.41,10.76-1.07,14.13-13.96,31.62-46.08,58.15-81.23,61.11-4.6.41-11.01,1.48-9.2-5.5ZM467.93,207.71c3.29-2.05,7.31,1.4,10.35,2.46,1.72.66,8.54,2.22,9.28,2.79,2.3,1.89,1.64,5.67-1.15,6.57-3.53,1.15-15.36-3.2-17.91-6-1.56-1.64-2.96-4.35-.58-5.83ZM604.44,163.03c-17.82,43.2-67.68,80.08-115.81,73.26-17.25-2.38-38.52-13.14-42.87-31.62-.66-2.87.57-8.79,4.11-6.32.66.49,4.44,9.04,5.83,11.01,11.99,17.82,36.96,22.26,56.92,19.14,36.8-5.75,69.98-34.25,84.19-68.09,1.48-3.45,2.71-11.58,7.8-10.18,5.17,1.56,1.15,9.53-.16,12.81Z"/>
  </g>

  <g transform="translate(420, -270)">
    <path class="cls-1" d="M226.28,289.22h33.14v203.16h-33.14v-203.16Z"/>
    
    <g transform="translate(-22, 0)">
      <path class="cls-1" d="M477.15,380.46c6.33,10.87,9.51,23.19,9.51,36.94v9.24h-144.53c1.81,11.41,6.93,20.65,15.35,27.71,8.42,7.06,18.97,10.59,31.65,10.59h26.63c9.59,0,17.88-1.9,24.85-5.71,6.97-3.8,12.45-8.96,16.44-15.48l23.1,19.56c-7.25,9.24-16.44,16.39-27.58,21.46-11.14,5.07-23.95,7.61-38.44,7.61h-26.35c-15.4,0-29.07-3.22-41.03-9.64-11.95-6.43-21.28-15.21-27.97-26.35-6.71-11.14-10.05-23.68-10.05-37.63s3.34-26.45,10.05-37.49c6.69-11.05,15.89-19.83,27.57-26.35,11.68-6.52,24.94-9.78,39.79-9.78h25.54c14.67,0,27.66,3.17,38.98,9.51,11.32,6.34,20.15,14.94,26.49,25.8ZM452.69,402.19c-2.36-9.41-7.2-16.89-14.54-22.42-7.33-5.52-16.53-8.29-27.57-8.29h-24.18c-10.51,0-19.56,2.82-27.16,8.43-7.61,5.61-12.86,13.03-15.76,22.28h109.22Z"/>
    </g>
    
    <g transform="translate(-48, 0)">
      <path class="cls-1" d="M615.16,465.22h-4.62l-52.98-113.02h-37.76l70.09,140.18h44.28l70.91-140.18h-36.95l-52.97,113.02Z"/>
    </g>
    
    <g transform="translate(-70, 0)">
      <path class="cls-1" d="M801.67,356.28c-7.42,4.53-13.4,10.97-17.93,19.29v-23.37h-33.41v140.18h33.41v-70.9c0-13.77,3.67-24,11.01-30.7,7.33-6.7,16.8-10.05,28.39-10.05h12.77c3.51,0,10.78.23,19.39.67,1.73-3.96,3.73-7.8,6.02-11.52,4.65-7.56,10.14-14.35,16.45-20.4h-49.47c-10.32,0-19.2,2.27-26.63,6.79Z"/>
    </g>
    
    <g transform="translate(-90, 0)">
      <path class="cls-1" d="M1075.31,418.77c0,13.77-3.39,26.22-10.18,37.35-6.79,11.15-16.07,19.97-27.84,26.5-11.78,6.51-25.26,9.78-40.48,9.78h-25.81c-15.21,0-28.71-3.26-40.48-9.78-11.78-6.52-21.06-15.35-27.84-26.5-6.79-11.13-10.19-23.58-10.19-37.35s3.4-26.45,10.19-37.49c6.78-11.05,16.07-19.83,27.84-26.35,11.77-6.52,25.27-9.78,40.48-9.78h25.81c15.22,0,28.71,3.26,40.48,9.78,11.77,6.52,21.05,15.3,27.84,26.35,6.79,11.05,10.18,23.55,10.18,37.49ZM1041.08,418.77c0-8.7-1.91-16.44-5.71-23.23-3.8-6.79-9.06-12.13-15.75-16.03-6.7-3.89-14.4-5.84-23.1-5.84h-25.27c-8.69,0-16.44,1.95-23.23,5.84-6.79,3.9-12.09,9.24-15.89,16.03-3.8,6.79-5.7,14.53-5.7,23.23s1.9,16.21,5.7,23.09c3.8,6.88,9.1,12.27,15.89,16.16,6.79,3.89,14.54,5.84,23.23,5.84h25.27c8.7,0,16.39-1.95,23.1-5.84,6.69-3.89,11.95-9.28,15.75-16.16,3.8-6.88,5.71-14.58,5.71-23.09Z"/>
    </g>
  </g>
</svg>
