<?xml version="1.0" encoding="UTF-8"?>
<svg id="Layer_1" data-name="Layer 1" xmlns="http://www.w3.org/2000/svg"
    viewBox="4.71 285.22 1070.6 210.16">
    <defs>
        <style>
      .cls-1 {
        fill: #fff;
      }
    </style>
    </defs>
    <path class="cls-1"
        d="M226.28,289.22h33.14v203.16h-33.14v-203.16ZM173.14,380.46c6.33,10.87,9.5,23.19,9.5,36.94v9.24H38.12c1.81,11.41,6.92,20.65,15.35,27.71,8.42,7.06,18.96,10.59,31.65,10.59h26.62c9.6,0,17.89-1.9,24.86-5.71,6.96-3.8,12.45-8.96,16.44-15.48l23.09,19.56c-7.25,9.24-16.44,16.39-27.57,21.46-11.14,5.07-23.95,7.61-38.44,7.61h-26.36c-15.39,0-29.07-3.22-41.02-9.64-11.95-6.43-21.28-15.21-27.98-26.35-6.7-11.14-10.05-23.68-10.05-37.63s3.35-26.45,10.05-37.49c6.7-11.05,15.89-19.83,27.57-26.35,11.69-6.52,24.95-9.78,39.8-9.78h25.54c14.67,0,27.66,3.17,38.98,9.51,11.32,6.34,20.15,14.94,26.5,25.8ZM148.68,402.19c-2.35-9.41-7.2-16.89-14.53-22.42-7.33-5.52-16.53-8.29-27.57-8.29h-24.18c-10.5,0-19.56,2.82-27.17,8.43-7.61,5.61-12.85,13.03-15.75,22.28h109.21ZM615.16,465.22h-4.62l-52.98-113.02h-37.76l70.09,140.18h44.28l70.91-140.18h-36.95l-52.97,113.02ZM801.67,356.28c-7.42,4.53-13.4,10.97-17.93,19.29v-23.37h-33.41v140.18h33.41v-70.9c0-13.77,3.67-24,11.01-30.7,7.33-6.7,16.8-10.05,28.39-10.05h12.77c3.51,0,10.78.23,19.39.67,1.73-3.96,3.73-7.8,6.02-11.52,4.65-7.56,10.14-14.35,16.45-20.4h-49.47c-10.32,0-19.2,2.27-26.63,6.79ZM1075.31,418.77c0,13.77-3.39,26.22-10.18,37.35-6.79,11.15-16.07,19.97-27.84,26.5-11.78,6.51-25.26,9.78-40.48,9.78h-25.81c-15.21,0-28.71-3.26-40.48-9.78-11.78-6.52-21.06-15.35-27.84-26.5-6.79-11.13-10.19-23.58-10.19-37.35s3.4-26.45,10.19-37.49c6.78-11.05,16.07-19.83,27.84-26.35,11.77-6.52,25.27-9.78,40.48-9.78h25.81c15.22,0,28.71,3.26,40.48,9.78,11.77,6.52,21.05,15.3,27.84,26.35,6.79,11.05,10.18,23.55,10.18,37.49ZM1041.08,418.77c0-8.7-1.91-16.44-5.71-23.23-3.8-6.79-9.06-12.13-15.75-16.03-6.7-3.89-14.4-5.84-23.1-5.84h-25.27c-8.69,0-16.44,1.95-23.23,5.84-6.79,3.9-12.09,9.24-15.89,16.03-3.8,6.79-5.7,14.53-5.7,23.23s1.9,16.21,5.7,23.09c3.8,6.88,9.1,12.27,15.89,16.16,6.79,3.89,14.54,5.84,23.23,5.84h25.27c8.7,0,16.39-1.95,23.1-5.84,6.69-3.89,11.95-9.28,15.75-16.16,3.8-6.88,5.71-14.58,5.71-23.09ZM477.15,380.46c6.33,10.87,9.51,23.19,9.51,36.94v9.24h-144.53c1.81,11.41,6.93,20.65,15.35,27.71,8.42,7.06,18.97,10.59,31.65,10.59h26.63c9.59,0,17.88-1.9,24.85-5.71,6.97-3.8,12.45-8.96,16.44-15.48l23.1,19.56c-7.25,9.24-16.44,16.39-27.58,21.46-11.14,5.07-23.95,7.61-38.44,7.61h-26.35c-15.4,0-29.07-3.22-41.03-9.64-11.95-6.43-21.28-15.21-27.97-26.35-6.71-11.14-10.05-23.68-10.05-37.63s3.34-26.45,10.05-37.49c6.69-11.05,15.89-19.83,27.57-26.35,11.68-6.52,24.94-9.78,39.79-9.78h25.54c14.67,0,27.66,3.17,38.98,9.51,11.32,6.34,20.15,14.94,26.49,25.8ZM452.69,402.19c-2.36-9.41-7.2-16.89-14.54-22.42-7.33-5.52-16.53-8.29-27.57-8.29h-24.18c-10.51,0-19.56,2.82-27.16,8.43-7.61,5.61-12.86,13.03-15.76,22.28h109.22Z" />
</svg>